<?xml version="1.0" encoding="UTF-8"?>
<svg width="32" height="32" viewBox="0 0 32 32" fill="none" xmlns="http://www.w3.org/2000/svg">
    <rect width="32" height="32" rx="8" fill="#FF4655"/>
    <path d="M8 16C8 11.5817 11.5817 8 16 8C20.4183 8 24 11.5817 24 16C24 20.4183 20.4183 24 16 24" stroke="white" stroke-width="2" stroke-linecap="round"/>
    <path d="M16 24C13.7909 24 12 22.2091 12 20C12 17.7909 13.7909 16 16 16C18.2091 16 20 17.7909 20 20C20 22.2091 18.2091 24 16 24Z" fill="white"/>
    <path d="M16 12C17.1046 12 18 11.1046 18 10C18 8.89543 17.1046 8 16 8C14.8954 8 14 8.89543 14 10C14 11.1046 14.8954 12 16 12Z" fill="white"/>
</svg> 